<?xml version="1.0" encoding="UTF-8"?> <svg xmlns="http://www.w3.org/2000/svg" width="258" height="54" viewBox="0 0 258 54" fill="none"><path d="M10.9246 43.8469C8.78406 41.3338 6.91503 35.8846 10.9372 30.7701C12.4274 28.8631 12.7936 26.0786 11.4739 23.8117C9.76908 20.8756 6.00578 19.8779 3.07595 21.5765C-0.144325 23.4518 -1.04095 27.8339 1.38373 30.7637C4.3325 34.3376 4.62927 39.9826 1.38373 43.8406C-0.213782 45.7349 -0.472667 48.5195 0.840702 50.7863C2.54556 53.7224 6.33412 54.7643 9.245 53.0216C12.8252 50.8684 13.1283 46.4168 10.9309 43.8406" fill="white"></path><path d="M27.6892 33.428C25.5487 30.9213 23.6797 25.4657 27.7019 20.3512C29.192 18.4506 29.5583 15.6723 28.2386 13.3928C26.5337 10.4567 22.7704 9.45905 19.8406 11.1639C16.6203 13.0392 15.7237 17.415 18.1484 20.3512C21.0971 23.925 21.3939 29.5763 18.1484 33.428C16.5509 35.3223 16.292 38.1069 17.6053 40.3737C19.3102 43.3162 23.0988 44.3517 26.0033 42.609C29.5835 40.4558 29.8866 36.0043 27.6956 33.428" fill="white"></path><path d="M36.8568 21.5767C39.7992 19.8781 43.5562 20.8884 45.2548 23.8246C46.9533 26.767 45.943 30.524 43.0069 32.2225C40.0644 33.9274 36.3074 32.9108 34.6089 29.9747C32.9104 27.0385 33.9206 23.2752 36.8568 21.5767Z" fill="#FF4F00"></path><path d="M3.08846 0.827756C6.0246 -0.877098 9.7879 0.1395 11.4801 3.06932C13.1787 6.01177 12.1684 9.77508 9.23225 11.4673C6.2898 13.1658 2.5328 12.1556 0.834265 9.21943C-0.864275 6.28329 0.146009 2.5263 3.08846 0.827756Z" fill="#FF4F00"></path><path d="M247.398 14.4805H242.378L237.1 26.8807H242.416L244.816 21.0158L247.215 26.8731C247.634 27.9014 246.88 29.0363 245.76 29.0363H236.186L231.783 39.3877H237.328L239.591 33.8426H250.048L252.311 39.3877H258.001L247.405 14.4881L247.398 14.4805Z" fill="white"></path><path d="M202.96 14.4805H197.941L192.662 26.8807H197.979L200.378 21.0158L202.778 26.8731C203.204 27.9014 202.442 29.0363 201.323 29.0363H191.748L187.346 39.3877H192.891L195.153 33.8426H205.611L207.873 39.3877H213.563L202.968 14.4881L202.96 14.4805Z" fill="white"></path><path d="M103.752 14.4805H98.7328L93.4543 26.8807H98.7709L101.17 21.0158L103.569 26.8731C103.996 27.9014 103.234 29.0363 102.115 29.0363H92.5403L88.1377 39.3877H93.6828L95.945 33.8426H106.403L108.665 39.3877H114.355L103.76 14.4881L103.752 14.4805Z" fill="white"></path><path d="M146.763 14.6558H141.324V39.3725H146.763V14.6558Z" fill="white"></path><path d="M75.8812 14.4805H70.8617L65.5832 26.8807H70.8998L73.2991 21.0158L75.6984 26.8731C76.1173 27.9014 75.3633 29.0363 74.2436 29.0363H64.6692L60.2666 39.3877H65.8117L68.0739 33.8426H78.5319L80.7941 39.3877H86.4839L75.8888 14.4881L75.8812 14.4805Z" fill="white"></path><path d="M173.178 14.6558H163.535V32.3269H167.161C168.166 32.3269 168.974 31.5195 168.974 30.5141V19.561H173.178C177.626 19.561 180.635 22.6306 180.635 27.0103V27.0789C180.635 31.4586 177.634 34.4597 173.178 34.4597H163.535V39.3725H173.178C180.947 39.3725 186.317 33.9722 186.317 27.0103V26.9418C186.317 19.9876 180.947 14.6558 173.178 14.6558Z" fill="white"></path><path d="M127.585 14.6556H117.485V24.9688H122.924V19.5685H127.128C129.848 19.5685 131.546 20.8709 131.546 23.3083V23.3769C131.546 25.4868 129.954 27.1168 127.235 27.1168H119.298C118.293 27.1168 117.485 27.9242 117.485 28.9296V39.3647H122.924V31.9535H127.06C132.605 31.9535 137.053 28.9829 137.053 23.2626V23.1941C137.053 18.1441 133.488 14.6479 127.585 14.6479" fill="white"></path><path d="M232.832 14.6558H212.343V19.6677H219.868V39.3725H225.307V19.6677H232.832V14.6558Z" fill="white"></path></svg> 